<svg id="Layer_1" data-name="Layer 1" xmlns="http://www.w3.org/2000/svg" viewBox="0 0 512 512"><defs><style>.cls-1{fill:#fff;}.cls-2{fill:#390;}</style></defs><circle class="cls-1" cx="262" cy="192" r="108"/><path class="cls-2" d="M256,0C153.8,0,70.6,83.2,70.6,185.4c0,126.9,165.9,313.2,173,321a16.63,16.63,0,0,0,24.8,0c7.1-7.9,173-194.1,173-321C441.4,83.2,358.2,0,256,0Zm0,278.7a93.3,93.3,0,1,1,93.3-93.3A93.46,93.46,0,0,1,256,278.7Z"/><path class="cls-2" d="M255.9,220.1a4.17,4.17,0,0,1-3.4-1.8l-44.2-64.1a4.16,4.16,0,0,1-.3-4.3,4,4,0,0,1,3.7-2.2h88.5a4.33,4.33,0,0,1,3.7,2.2,4.16,4.16,0,0,1-.3,4.3l-44.2,64.1A4.66,4.66,0,0,1,255.9,220.1ZM219.5,156l36.3,52.7L292.1,156Z"/><path class="cls-2" d="M255.9,253.6a4.12,4.12,0,0,1-4.1-4.1V216a4.1,4.1,0,1,1,8.2,0v33.5A4.12,4.12,0,0,1,255.9,253.6Z"/><path class="cls-2" d="M286.9,253.6H225a4.12,4.12,0,0,1-4.1-4.1,4.19,4.19,0,0,1,4.1-4.1h61.9a4.12,4.12,0,0,1,4.1,4.1A4.19,4.19,0,0,1,286.9,253.6Z"/><path class="cls-2" d="M255.9,191.4a3.66,3.66,0,0,1-1.8-.4,4.16,4.16,0,0,1-1.9-5.6l35.4-71.1a4.18,4.18,0,1,1,7.5,3.7l-35.4,71.1a4.51,4.51,0,0,1-3.8,2.3Z"/><path class="cls-2" d="M282,182.2a3.89,3.89,0,0,1-2.3-.7l-6.2-4.1a7.68,7.68,0,0,0-8.7,0,16.18,16.18,0,0,1-17.9,0,7.68,7.68,0,0,0-8.7,0l-6.2,4.1a4.19,4.19,0,1,1-4.6-7l6.2-4.1a16.18,16.18,0,0,1,17.9,0,7.68,7.68,0,0,0,8.7,0,16.18,16.18,0,0,1,17.9,0l6.2,4.1a4.28,4.28,0,0,1,1.2,5.8,4.08,4.08,0,0,1-3.5,1.9Z"/></svg>