<svg id="Layer_1" data-name="Layer 1" xmlns="http://www.w3.org/2000/svg" viewBox="0 0 512 512"><defs><style>.cls-1{fill:#fff;}.cls-2{fill:#cc3a3a;}</style></defs><circle class="cls-1" cx="254" cy="192" r="108"/><path class="cls-2" d="M248,0C145.8,0,62.6,83.2,62.6,185.4c0,126.9,165.9,313.2,173,321a16.63,16.63,0,0,0,24.8,0c7.1-7.9,173-194.1,173-321C433.4,83.2,350.2,0,248,0Zm0,278.7a93.3,93.3,0,1,1,93.3-93.3A93.46,93.46,0,0,1,248,278.7Z"/><path class="cls-2" d="M304.8,172.4h-110a2.48,2.48,0,0,0-2.5,2.5v60a12.5,12.5,0,0,0,12.5,12.5h90a12.5,12.5,0,0,0,12.5-12.5v-60A2.48,2.48,0,0,0,304.8,172.4Zm-2.5,62.5a7.55,7.55,0,0,1-7.5,7.5h-90a7.55,7.55,0,0,1-7.5-7.5V177.4h105Z"/><path class="cls-2" d="M307.2,149.2l-4.3-16.1a7.61,7.61,0,0,0-9-5.5L193.2,151.5a7.49,7.49,0,0,0-4.7,3.4,7.36,7.36,0,0,0-.9,5.8l4.7,18.6a2.55,2.55,0,0,0,2.4,1.9,1.27,1.27,0,0,0,.6-.1,2.52,2.52,0,0,0,1.8-3l-.3-1.1,108.4-24.6a3.09,3.09,0,0,0,1.6-1.1A2.34,2.34,0,0,0,307.2,149.2ZM195.7,172.1l-3.2-12.7a2.14,2.14,0,0,1,.3-1.9,2.27,2.27,0,0,1,1.6-1.1l100.7-23.9a4.33,4.33,0,0,0,.5-.1,2.46,2.46,0,0,1,2.4,1.9l3.6,13.7Z"/><path class="cls-2" d="M215.9,172.6a2.63,2.63,0,0,0-3.4,1.1l-10,20a2.63,2.63,0,0,0,1.1,3.4,2.28,2.28,0,0,0,1.1.3,2.4,2.4,0,0,0,2.2-1.4l10-20A2.5,2.5,0,0,0,215.9,172.6Z"/><path class="cls-2" d="M240.9,172.6a2.63,2.63,0,0,0-3.4,1.1l-10,20a2.63,2.63,0,0,0,1.1,3.4,2.28,2.28,0,0,0,1.1.3,2.4,2.4,0,0,0,2.2-1.4l10-20A2.5,2.5,0,0,0,240.9,172.6Z"/><path class="cls-2" d="M265.9,172.6a2.63,2.63,0,0,0-3.4,1.1l-10,20a2.63,2.63,0,0,0,1.1,3.4,2.28,2.28,0,0,0,1.1.3,2.4,2.4,0,0,0,2.2-1.4l10-20A2.5,2.5,0,0,0,265.9,172.6Z"/><path class="cls-2" d="M290.9,172.6a2.63,2.63,0,0,0-3.4,1.1l-10,20a2.63,2.63,0,0,0,1.1,3.4,2.28,2.28,0,0,0,1.1.3,2.4,2.4,0,0,0,2.2-1.4l10-20A2.5,2.5,0,0,0,290.9,172.6Z"/><path class="cls-2" d="M304.8,192.4h-110a2.5,2.5,0,0,0,0,5h110a2.5,2.5,0,0,0,0-5Z"/><path class="cls-2" d="M218.9,168l-17.2-17.2a2.42,2.42,0,0,0-3.5,0,2.5,2.5,0,0,0,0,3.5l17.2,17.2a2.66,2.66,0,0,0,3.6,0A2.51,2.51,0,0,0,218.9,168Z"/><path class="cls-2" d="M243.4,162.5l-17.2-17.2a2.42,2.42,0,0,0-3.5,0,2.5,2.5,0,0,0,0,3.5L239.9,166a2.66,2.66,0,0,0,3.6,0A2.51,2.51,0,0,0,243.4,162.5Z"/><path class="cls-2" d="M267.8,156.9l-17.2-17.2a2.42,2.42,0,0,0-3.5,0,2.5,2.5,0,0,0,0,3.5l17.2,17.2a2.66,2.66,0,0,0,3.6,0A2.51,2.51,0,0,0,267.8,156.9Z"/><path class="cls-2" d="M292.3,151.4l-17.2-17.2a2.47,2.47,0,0,0-3.5,3.5l17.2,17.2a2.66,2.66,0,0,0,3.6,0A2.72,2.72,0,0,0,292.3,151.4Z"/></svg>