<svg xmlns="http://www.w3.org/2000/svg">
    
    <defs>
    <!--Textures-->
    <pattern id="lines" patternUnits="userSpaceOnUse" width="60" height="60">
        <path d="M 0,60 l 60,-60 M -15,15 l 30,-30 M 45,75 l 30,-30" stroke-width="40" shape-rendering="auto" 
            stroke="yellow" stroke-linecap="square">
        </path>
    </pattern>
    <pattern id="petitsTraits" patternUnits="userSpaceOnUse" width="10" height="10">
        <path d="M 2.5,2.5l5,5M7.5,2.5l5,-5 M2.5,7.5l-5,5M7.5,12.5l5,-5 M-2.5,2.5l5,-5" 
            fill="transparent" stroke="purple" stroke-width="1" stroke-linecap="square" shape-rendering="auto">
        </path>
    </pattern>
    <!--Filtres (pictureFilter ne fontionne pas-->
    <filter id="pictureFilter" >
        <feColorMatrix type="luminanceToAlpha" />
        <feConvolveMatrix order="3" kernelMatrix="-1 -2 -1 0 0 0 1 2 1" />
        <feConvolveMatrix order="3" kernelMatrix="-1 -2 -1 0 0 0 1 2 1" />
    </filter>
    <filter id="textFilter">
        <feTurbulence baseFrequency="0.5"/>
        <feDisplacementMap in="SourceGraphic" scale="7"/>
   </filter>
  </defs>

    <rect x="40" y="60" width="150" height="30" fill="url(#lines)"/>
    <text x="50" y="70" font-size="40" font-family="verdana" filter="url(#textFilter)">Ophélie Baur</text>
    <!--dessin d'une étoile-->
    <path
    d="M 120
       74 L 149
       74 L 158
       48 L 167
       74 L 196
       74 L 172.5
       90 L 181.5
       116 L 158
       100 L 134.5
       116 L 143.5
       90
       Z"
    fill="url(#petitsTraits)"
    stroke="pink"
    stroke-width="3.0"
    transform="translate(80, 80)"
>
</path>
</svg>
